<?xml version="1.0" encoding="iso-8859-1"?>
<!-- Uploaded to: SVG Repo, www.svgrepo.com, Generator: SVG Repo Mixer Tools -->
<svg version="1.1" id="Layer_1" xmlns="http://www.w3.org/2000/svg" xmlns:xlink="http://www.w3.org/1999/xlink" 
	 viewBox="0 0 511.994 511.994" xml:space="preserve">
<path style="fill:#C60024;" d="M368.268,75.58c-4.999-0.675-10.106-1.03-15.309-1.03c-34.179,0-64.84,15.035-85.748,38.845
	c-5.934,6.758-11.085,14.22-15.306,22.25c-16.83-32.024-48.434-55.062-85.752-60.067c-5.006-0.672-10.111-1.03-15.302-1.03
	c-63.012,0-112.605,51.081-112.605,114.093c0,29.825,8.895,46.663,15.898,60.85c28.908,58.563,197.762,198.485,197.762,198.485
	s5.767-4.755,15.341-12.87c42.466-35.989,159.931-138.154,182.42-185.616c6.733-14.209,15.898-32.336,15.898-60.85
	C465.565,130.834,423.819,83.073,368.268,75.58z"/>
<polygon style="fill:#9BC9FD;" points="501.202,12.007 485.671,69.975 466.679,46.53 443.236,27.54 "/>
<path style="fill:#A50020;" d="M275.514,295.93c0-45.569-48.827-62.92-56.132-54.454c-9.383,10.874,18.562,12.71,30.578,27.492
	l-79.324,79.324c-38.001-36.412-73.919-74.567-85.88-98.798c-7.003-14.187-15.898-31.025-15.898-60.85
	c0-57.81,41.745-105.57,97.296-113.064c-5.006-0.672-10.111-1.03-15.302-1.03c-63.012,0-112.605,51.081-112.605,114.093
	c0,29.825,8.895,46.663,15.898,60.85c28.908,58.563,197.762,198.485,197.762,198.485s5.767-4.755,15.341-12.87
	c-18.654-15.881-51.862-44.653-85.15-75.942l75.193-75.193C266.174,301.673,275.514,295.93,275.514,295.93z"/>
<rect x="29.954" y="51.826" transform="matrix(-0.7071 -0.7071 0.7071 -0.7071 43.1963 136.8057)" width="39.955" height="15.262"/>
<rect x="76.184" y="23.269" transform="matrix(-0.3449 -0.9386 0.9386 -0.3449 100.3241 131.8175)" width="39.954" height="15.261"/>
<rect x="1.406" y="98.046" transform="matrix(-0.9386 -0.3449 0.3449 -0.9386 5.0047 212.2431)" width="39.954" height="15.261"/>
<path d="M489.166,86.413l22.829-85.197l-85.198,22.828l28.494,23.081l-38.263,38.247c-18.932-12.016-40.959-18.453-64.067-18.453
	c-40.936,0-78.571,20.335-101.054,53.84c-22.483-33.505-60.116-53.84-101.054-53.84c-32.449,0-62.769,12.679-85.377,35.702
	c-22.479,22.892-34.859,53.442-34.859,86.023c0,30.524,8.826,48.351,15.919,62.675l0.767,1.553
	c13.174,26.688,53.493,68.856,94.507,107.709l-54.997,54.991l-38.345-0.745l-0.296,15.259l23.666,0.46l-7.896,7.895l-38.344-0.745
	l-0.296,15.259l23.665,0.46l-7.896,7.896l-38.342-0.745l-0.296,15.259l34.287,0.665l0.665,34.287l15.26-0.296l-0.747-38.417
	l7.895-7.895l0.46,23.738l15.26-0.296l-0.746-38.414l7.895-7.895l0.46,23.736l15.26-0.296l-0.746-38.413l55.304-55.299
	c46.367,43.166,90.557,79.891,94.096,82.824l4.855,4.025l4.867-4.012c7.004-5.774,171.838-142.084,199.804-201.107l0.792-1.668
	c6.685-14.063,15.84-33.323,15.84-62.449c0-32.58-12.38-63.131-34.859-86.023c-2.827-2.878-5.773-5.595-8.829-8.145l36.576-36.56
	L489.166,86.413z M457.934,188.644c0,25.684-7.963,42.436-14.361,55.897l-0.8,1.685C418.819,296.78,279.83,414.674,251.918,438.037
	c-12.948-10.891-49.87-42.277-88.14-77.842l94.191-94.183c6.225,8.361,9.914,18.716,9.914,29.917h15.262
	c0-36.098-29.368-65.467-65.467-65.467v15.262c10.986,0,21.153,3.557,29.429,9.566l-94.471,94.463
	c-40.14-37.943-79.356-78.738-91.648-103.638l-0.776-1.569c-6.719-13.57-14.334-28.95-14.334-55.903
	c0-59.698,46.11-106.463,104.974-106.463c39.685,0,75.818,21.847,94.3,57.014l6.755,12.854l6.755-12.854
	c18.483-35.167,54.616-57.015,94.3-57.015C411.824,82.181,457.934,128.945,457.934,188.644z M490.411,22.799l-8.236,30.736
	l-10.07-12.431l-12.431-10.07L490.411,22.799z"/>
<g>
	<path style="fill:#FFFFFF;" d="M422.494,157.124c-0.255-0.48-0.518-0.958-0.784-1.436c-3.358-5.997-6.993-11.086-11.113-15.553
		l11.217-10.348c4.941,5.357,9.263,11.391,13.214,18.45c0.321,0.573,0.633,1.145,0.938,1.717L422.494,157.124z"/>
	<path style="fill:#FFFFFF;" d="M442.631,220.112l-14.553-4.6c4.974-15.739,4.538-33.027-1.228-48.677l14.32-5.277
		C448.101,180.369,448.62,201.163,442.631,220.112z"/>
</g>
</svg>